<?xml version="1.0" encoding="UTF-8" standalone="no"?><svg xmlns="http://www.w3.org/2000/svg" xmlns:xlink="http://www.w3.org/1999/xlink" clip-rule="evenodd" stroke-miterlimit="10" viewBox="0 0 383 127"><desc>SVG generated by Keynote</desc><defs></defs><g transform="matrix(1.00, 0.00, -0.00, -1.00, 0.0, 127.0)"><g><clipPath id="clip0x7f93e677ef20"><path d="M -9.2 -9.4 L 755.8 -9.4 L 755.8 135.9 L -9.2 135.9 Z M -9.2 -9.4 "></path></clipPath><g clip-path="url(#clip0x7f93e677ef20)"><text xml:space="preserve" font-family="Roboto-Regular,Roboto" font-size="50.0" fill="#FEFFFE" transform="matrix(1.00, 0.00, -0.00, -1.00, 12.2, 75.4)">M</text><text xml:space="preserve" font-family="Roboto-Regular,Roboto" font-size="50.0" fill="#FEFFFE" transform="matrix(1.00, 0.00, -0.00, -1.00, 55.8, 75.4)">o</text><text xml:space="preserve" font-family="Roboto-Regular,Roboto" font-size="50.0" fill="#FEFFFE" transform="matrix(1.00, 0.00, -0.00, -1.00, 84.4, 75.4)">t</text><text xml:space="preserve" font-family="Roboto-Regular,Roboto" font-size="50.0" fill="#FEFFFE" transform="matrix(1.00, 0.00, -0.00, -1.00, 100.7, 75.4)">i</text><text xml:space="preserve" font-family="Roboto-Regular,Roboto" font-size="50.0" fill="#FEFFFE" transform="matrix(1.00, 0.00, -0.00, -1.00, 112.8, 75.4)">o</text><text xml:space="preserve" font-family="Roboto-Regular,Roboto" font-size="50.0" fill="#FEFFFE" transform="matrix(1.00, 0.00, -0.00, -1.00, 141.3, 75.4)">n</text><text xml:space="preserve" font-family="Roboto-Regular,Roboto" font-size="50.0" fill="#FEFFFE" transform="matrix(1.00, 0.00, -0.00, -1.00, 168.9, 75.4)"> </text><text xml:space="preserve" font-family="Roboto-Regular,Roboto" font-size="50.0" fill="#FEFFFE" transform="matrix(1.00, 0.00, -0.00, -1.00, 181.3, 75.4)">p</text><text xml:space="preserve" font-family="Roboto-Regular,Roboto" font-size="50.0" fill="#FEFFFE" transform="matrix(1.00, 0.00, -0.00, -1.00, 209.3, 75.4)">r</text><text xml:space="preserve" font-family="Roboto-Regular,Roboto" font-size="50.0" fill="#FEFFFE" transform="matrix(1.00, 0.00, -0.00, -1.00, 225.8, 75.4)">o</text><text xml:space="preserve" font-family="Roboto-Regular,Roboto" font-size="50.0" fill="#FEFFFE" transform="matrix(1.00, 0.00, -0.00, -1.00, 253.9, 75.4)">v</text><text xml:space="preserve" font-family="Roboto-Regular,Roboto" font-size="50.0" fill="#FEFFFE" transform="matrix(1.00, 0.00, -0.00, -1.00, 278.2, 75.4)">i</text><text xml:space="preserve" font-family="Roboto-Regular,Roboto" font-size="50.0" fill="#FEFFFE" transform="matrix(1.00, 0.00, -0.00, -1.00, 290.3, 75.4)">d</text><text xml:space="preserve" font-family="Roboto-Regular,Roboto" font-size="50.0" fill="#FEFFFE" transform="matrix(1.00, 0.00, -0.00, -1.00, 318.5, 75.4)">e</text><text xml:space="preserve" font-family="Roboto-Regular,Roboto" font-size="50.0" fill="#FEFFFE" transform="matrix(1.00, 0.00, -0.00, -1.00, 345.0, 75.4)">s</text><text xml:space="preserve" font-family="Roboto-Regular,Roboto" font-size="50.0" fill="#FEFFFE" transform="matrix(1.00, 0.00, -0.00, -1.00, 370.7, 75.4)"> </text><text xml:space="preserve" font-family="Roboto-Regular,Roboto" font-size="50.0" fill="#FEFFFE" transform="matrix(1.00, 0.00, -0.00, -1.00, 95.0, 17.4)">m</text><text xml:space="preserve" font-family="Roboto-Regular,Roboto" font-size="50.0" fill="#FEFFFE" transform="matrix(1.00, 0.00, -0.00, -1.00, 138.9, 17.4)">e</text><text xml:space="preserve" font-family="Roboto-Regular,Roboto" font-size="50.0" fill="#FEFFFE" transform="matrix(1.00, 0.00, -0.00, -1.00, 165.3, 17.4)">a</text><text xml:space="preserve" font-family="Roboto-Regular,Roboto" font-size="50.0" fill="#FEFFFE" transform="matrix(1.00, 0.00, -0.00, -1.00, 192.5, 17.4)">n</text><text xml:space="preserve" font-family="Roboto-Regular,Roboto" font-size="50.0" fill="#FEFFFE" transform="matrix(1.00, 0.00, -0.00, -1.00, 220.1, 17.4)">i</text><text xml:space="preserve" font-family="Roboto-Regular,Roboto" font-size="50.0" fill="#FEFFFE" transform="matrix(1.00, 0.00, -0.00, -1.00, 232.2, 17.4)">n</text><text xml:space="preserve" font-family="Roboto-Regular,Roboto" font-size="50.0" fill="#FEFFFE" transform="matrix(1.00, 0.00, -0.00, -1.00, 259.7, 17.4)">g</text></g></g></g></svg>