<?xml version="1.0" encoding="UTF-8" standalone="no"?><svg xmlns="http://www.w3.org/2000/svg" xmlns:xlink="http://www.w3.org/1999/xlink" clip-rule="evenodd" stroke-miterlimit="10" viewBox="0 0 766 576"><desc>SVG generated by Keynote</desc><defs><linearGradient id="gradSh1.8" x1="0.0" y1="0.0" x2="100.0" y2="0.0" gradientUnits="userSpaceOnUse" gradientTransform="matrix(6.42, 2.70, 1.15, -2.73, 62.3, -96.4)"><stop offset="0.00000" stop-color="#000000"></stop><stop offset="1.00000" stop-color="#000000"></stop></linearGradient><linearGradient id="gradSh1.9" x1="0.0" y1="0.0" x2="100.0" y2="0.0" gradientUnits="userSpaceOnUse" gradientTransform="matrix(6.42, 2.70, 1.15, -2.73, 62.3, -96.4)"><stop offset="0.00000" stop-color="#000000"></stop><stop offset="1.00000" stop-color="#000000"></stop></linearGradient></defs><g transform="matrix(1.00, 0.00, -0.00, -1.00, 0.0, 576.0)"><g><clipPath id="clip0x7f93e2f4bda0"><path d="M 0.7 0.6 L 765.9 0.6 L 765.9 41.1 L 0.7 41.1 Z M 0.7 0.6 "></path></clipPath><g clip-path="url(#clip0x7f93e2f4bda0)"><image xlink:href="../../D788B1CE-B5BB-405F-BA42-0362F6DC6E30/assets/168844444A205FF4782B0682EC41D7CF.png" width="763.00" height="15.00" transform="matrix(1.00, 0.00, -0.00, -1.02, 1.7, 16.9)"></image></g></g><g><clipPath id="clip0x7f93e6277b00"><path d="M 7.7 38.5 L 7.7 38.5 C 7.7 39.4 8.4 40.0 9.3 40.0 L 757.3 40.0 C 758.2 40.0 758.9 39.4 758.9 38.5 L 758.9 38.5 C 758.9 37.6 758.2 37.0 757.3 37.0 L 9.3 37.0 C 8.4 37.0 7.7 37.6 7.7 38.5 Z M 7.7 38.5 "></path></clipPath><g clip-path="url(#clip0x7f93e6277b00)"><g><clipPath id="clip0x7f93e6278360"><path d="M 0.7 0.6 L 765.9 0.6 L 765.9 41.1 L 0.7 41.1 Z M 0.7 0.6 "></path></clipPath><g clip-path="url(#clip0x7f93e6278360)"><path d="M 0.7 0.6 L 765.9 0.6 L 765.9 41.1 L 0.7 41.1 Z M 0.7 0.6 " fill="url(#gradSh1.8)"></path></g></g></g></g><g><clipPath id="clip0x7f93e62a6b40"><path d="M 0.7 0.6 L 765.9 0.6 L 765.9 41.1 L 0.7 41.1 Z M 0.7 0.6 "></path></clipPath><g clip-path="url(#clip0x7f93e62a6b40)"><image xlink:href="../../D788B1CE-B5BB-405F-BA42-0362F6DC6E30/assets/168844444A205FF4782B0682EC41D7CF.png" width="763.00" height="15.00" transform="matrix(1.00, 0.00, -0.00, -1.02, 1.7, 16.9)"></image></g></g><g><clipPath id="clip0x7f93e62a8060"><path d="M 7.7 38.5 L 7.7 38.5 C 7.7 39.4 8.4 40.0 9.3 40.0 L 757.3 40.0 C 758.2 40.0 758.9 39.4 758.9 38.5 L 758.9 38.5 C 758.9 37.6 758.2 37.0 757.3 37.0 L 9.3 37.0 C 8.4 37.0 7.7 37.6 7.7 38.5 Z M 7.7 38.5 "></path></clipPath><g clip-path="url(#clip0x7f93e62a8060)"><g><clipPath id="clip0x7f93e62a8e70"><path d="M 0.7 0.6 L 765.9 0.6 L 765.9 41.1 L 0.7 41.1 Z M 0.7 0.6 "></path></clipPath><g clip-path="url(#clip0x7f93e62a8e70)"><path d="M 0.7 0.6 L 765.9 0.6 L 765.9 41.1 L 0.7 41.1 Z M 0.7 0.6 " fill="url(#gradSh1.9)"></path></g></g></g></g><g><clipPath id="clip0x7f93e62f4bd0"><path d="M 5.3 9.5 L 761.3 9.5 L 761.3 575.5 L 5.3 575.5 Z M 5.3 9.5 "></path></clipPath><g clip-path="url(#clip0x7f93e62f4bd0)"><image xlink:href="../../D788B1CE-B5BB-405F-BA42-0362F6DC6E30/assets/96A111220801510027902B77A74147BE.png" width="756.00" height="566.00" transform="matrix(1.00, 0.00, -0.00, -1.00, 5.3, 575.5)"></image></g></g><g><clipPath id="clip0x7f93e61fb000"><path d="M 7.0 574.0 L 759.0 574.0 L 759.0 12.0 L 7.0 12.0 Z M 7.3 574.5 "></path></clipPath><g clip-path="url(#clip0x7f93e61fb000)"><g><clipPath id="clip0x7f93e61fb9e0"><path d="M 7.0 293.0 L 7.0 574.0 L 383.3 574.0 L 759.0 574.0 L 759.0 293.5 L 759.0 12.0 L 383.3 12.0 L 7.0 12.0 L 7.0 293.0 M 733.0 295.0 L 733.0 543.0 L 383.3 543.0 L 34.0 543.0 L 33.0 296.5 C 32.8 160.9 33.3 49.3 33.7 48.4 C 34.1 47.2 104.8 46.8 383.6 47.0 L 733.0 48.0 L 733.0 295.0 "></path></clipPath><g clip-path="url(#clip0x7f93e61fb9e0)"><g><clipPath id="clip0x7f93e6400220"><path d="M 5.3 9.5 L 761.3 9.5 L 761.3 575.5 L 5.3 575.5 Z M 5.3 9.5 "></path></clipPath><g clip-path="url(#clip0x7f93e6400220)"><image xlink:href="../../D788B1CE-B5BB-405F-BA42-0362F6DC6E30/assets/03692C667050A4847BFC5BCF724C51B3.png" width="752.00" height="562.00" transform="matrix(1.00, 0.00, -0.00, -1.00, 7.0, 574.0)"></image></g></g></g></g></g></g></g></svg>