<?xml version="1.0" encoding="UTF-8" standalone="no"?><svg xmlns="http://www.w3.org/2000/svg" xmlns:xlink="http://www.w3.org/1999/xlink" clip-rule="evenodd" stroke-miterlimit="10" viewBox="0 0 365 622"><desc>SVG generated by Keynote</desc><defs><linearGradient id="gradSh1.2" x1="0.0" y1="0.0" x2="100.0" y2="0.0" gradientUnits="userSpaceOnUse" gradientTransform="matrix(3.00, 1.26, 0.54, -1.29, 32.4, -14.0)"><stop offset="0.00000" stop-color="#000000"></stop><stop offset="1.00000" stop-color="#000000"></stop></linearGradient><linearGradient id="gradSh1.3" x1="0.0" y1="0.0" x2="100.0" y2="0.0" gradientUnits="userSpaceOnUse" gradientTransform="matrix(3.00, 1.26, 0.54, -1.29, 32.4, -14.0)"><stop offset="0.00000" stop-color="#000000"></stop><stop offset="1.00000" stop-color="#000000"></stop></linearGradient></defs><g transform="matrix(1.00, 0.00, -0.00, -1.00, 0.0, 622.0)"><g><clipPath id="clip0x7f93e5dd5e90"><path d="M 0.8 0.0 L 363.6 0.0 L 363.6 50.8 L 0.8 50.8 Z M 0.8 0.0 "></path></clipPath><g clip-path="url(#clip0x7f93e5dd5e90)"><image xlink:href="5FA82F8102E73AEF54E7B82D890797BA.png" width="361.00" height="14.00" transform="matrix(1.00, 0.00, -0.00, -0.97, 1.8, 14.6)"></image></g></g><g><clipPath id="clip0x7f93e6332c60"><path d="M 7.8 49.0 L 7.8 49.0 C 7.8 49.5 8.1 50.0 8.6 50.0 L 355.8 50.0 C 356.2 50.0 356.6 49.5 356.6 49.0 L 356.6 49.0 C 356.6 48.6 356.2 48.0 355.8 48.0 L 8.6 48.0 C 8.1 48.0 7.8 48.6 7.8 49.0 Z M 7.8 49.0 "></path></clipPath><g clip-path="url(#clip0x7f93e6332c60)"><g><clipPath id="clip0x7f93e632d1c0"><path d="M 0.8 0.0 L 363.6 0.0 L 363.6 50.8 L 0.8 50.8 Z M 0.8 0.0 "></path></clipPath><g clip-path="url(#clip0x7f93e632d1c0)"><path d="M 0.8 0.0 L 363.6 0.0 L 363.6 50.8 L 0.8 50.8 Z M 0.8 0.0 " fill="url(#gradSh1.2)"></path></g></g></g></g><g><clipPath id="clip0x7f93e637d420"><path d="M 0.8 0.0 L 363.6 0.0 L 363.6 50.8 L 0.8 50.8 Z M 0.8 0.0 "></path></clipPath><g clip-path="url(#clip0x7f93e637d420)"><image xlink:href="../../D788B1CE-B5BB-405F-BA42-0362F6DC6E30/assets/5FA82F8102E73AEF54E7B82D890797BA.png" width="361.00" height="14.00" transform="matrix(1.00, 0.00, -0.00, -0.97, 1.8, 14.6)"></image></g></g><g><clipPath id="clip0x7f93e637ebf0"><path d="M 7.8 49.0 L 7.8 49.0 C 7.8 49.5 8.1 50.0 8.6 50.0 L 355.8 50.0 C 356.2 50.0 356.6 49.5 356.6 49.0 L 356.6 49.0 C 356.6 48.6 356.2 48.0 355.8 48.0 L 8.6 48.0 C 8.1 48.0 7.8 48.6 7.8 49.0 Z M 7.8 49.0 "></path></clipPath><g clip-path="url(#clip0x7f93e637ebf0)"><g><clipPath id="clip0x7f93e637fad0"><path d="M 0.8 0.0 L 363.6 0.0 L 363.6 50.8 L 0.8 50.8 Z M 0.8 0.0 "></path></clipPath><g clip-path="url(#clip0x7f93e637fad0)"><path d="M 0.8 0.0 L 363.6 0.0 L 363.6 50.8 L 0.8 50.8 Z M 0.8 0.0 " fill="url(#gradSh1.3)"></path></g></g></g></g><g><clipPath id="clip0x7f93e63cb810"><path d="M 5.7 8.2 L 358.7 8.2 L 358.7 621.2 L 5.7 621.2 Z M 5.7 8.2 "></path></clipPath><g clip-path="url(#clip0x7f93e63cb810)"><image xlink:href="86A0DB0E16E9DFF238C657953B4DE93B.png" width="353.00" height="613.00" transform="matrix(1.00, 0.00, -0.00, -1.00, 5.7, 621.2)"></image></g></g><g><clipPath id="clip0x7f93e63cc8a0"><path d="M 8.0 620.0 L 357.0 620.0 L 357.0 11.0 L 8.0 11.0 Z M 7.7 620.2 "></path></clipPath><g clip-path="url(#clip0x7f93e63cc8a0)"><g><clipPath id="clip0x7f93e63cd280"><path d="M 8.0 316.0 L 8.0 620.0 L 182.2 620.0 L 357.0 620.0 L 357.0 315.7 L 357.0 11.0 L 182.2 11.0 L 8.0 11.0 L 8.0 316.0 M 329.5 87.9 C 330.5 89.1 331.2 151.5 331.0 323.2 L 330.0 557.0 L 182.2 557.0 L 34.0 557.0 L 34.0 323.1 C 33.8 194.5 33.7 88.6 34.1 87.8 C 35.0 85.4 327.5 85.5 329.5 87.9 "></path></clipPath><g clip-path="url(#clip0x7f93e63cd280)"><g><clipPath id="clip0x7f93e63cdb40"><path d="M 5.7 8.2 L 358.7 8.2 L 358.7 621.2 L 5.7 621.2 Z M 5.7 8.2 "></path></clipPath><g clip-path="url(#clip0x7f93e63cdb40)"><image xlink:href="28784DD103E1A7010420129992820C69.png" width="349.00" height="609.00" transform="matrix(1.00, 0.00, -0.00, -1.00, 8.0, 620.0)"></image></g></g></g></g></g></g></g></svg>