<?xml version="1.0" encoding="UTF-8" standalone="no"?><svg xmlns="http://www.w3.org/2000/svg" xmlns:xlink="http://www.w3.org/1999/xlink" clip-rule="evenodd" stroke-miterlimit="10" viewBox="0 0 40 39"><desc>SVG generated by Keynote</desc><defs></defs><g transform="matrix(1.00, 0.00, -0.00, -1.00, 0.0, 39.0)"><g><clipPath id="clip0x7f93e63dc420"><path d="M 0.8 0.8 L 39.7 0.8 L 39.7 38.3 L 0.8 38.3 Z M 0.8 0.8 "></path></clipPath><g clip-path="url(#clip0x7f93e63dc420)"><image xlink:href="B29E18EEFAC44BE3B4A1A7122331041F.png" width="37.00" height="36.00" transform="matrix(1.00, 0.00, -0.00, -0.99, 1.8, 37.3)" opacity="0.50"></image><path d="M 31.1 32.0 C 37.2 26.2 37.2 16.8 31.1 11.1 C 25.1 5.3 15.3 5.3 9.3 11.1 C 3.3 16.8 3.3 26.2 9.3 32.0 C 15.3 37.7 25.1 37.7 31.1 32.0 Z M 31.1 32.0 " fill="#3EB768"></path></g></g><g><clipPath id="clip0x7f93e63de650"><path d="M 9.0 29.0 L 32.0 29.0 L 32.0 14.0 L 9.0 14.0 Z M 8.8 28.7 "></path></clipPath><g clip-path="url(#clip0x7f93e63de650)"><g><clipPath id="clip0x7f93e63dede0"><path d="M 8.8 13.9 L 31.7 13.9 L 31.7 28.7 L 8.8 28.7 Z M 8.8 13.9 "></path></clipPath><g clip-path="url(#clip0x7f93e63dede0)"><image xlink:href="3B24469C8870D8EBCEE6B02D6CE647F6.png" width="2153.00" height="1209.00" transform="matrix(0.22, 0.00, -0.00, -0.22, -207.0, 131.0)"></image></g></g></g></g></g></svg>