<?xml version="1.0" encoding="UTF-8" standalone="no"?><svg xmlns="http://www.w3.org/2000/svg" xmlns:xlink="http://www.w3.org/1999/xlink" clip-rule="evenodd" stroke-miterlimit="10" viewBox="0 0 207 399"><desc>SVG generated by Keynote</desc><defs><linearGradient id="gradSh1.4" x1="0.0" y1="0.0" x2="100.0" y2="0.0" gradientUnits="userSpaceOnUse" gradientTransform="matrix(1.66, 0.70, 0.30, -0.72, 20.3, 14.7)"><stop offset="0.00000" stop-color="#000000"></stop><stop offset="1.00000" stop-color="#000000"></stop></linearGradient><linearGradient id="gradSh1.5" x1="0.0" y1="0.0" x2="100.0" y2="0.0" gradientUnits="userSpaceOnUse" gradientTransform="matrix(1.66, 0.70, 0.30, -0.72, 20.3, 14.7)"><stop offset="0.00000" stop-color="#000000"></stop><stop offset="1.00000" stop-color="#000000"></stop></linearGradient></defs><g transform="matrix(1.00, 0.00, -0.00, -1.00, 0.0, 399.0)"><g><clipPath id="clip0x7f93e61796a0"><path d="M 0.2 0.8 L 206.1 0.8 L 206.1 50.9 L 0.2 50.9 Z M 0.2 0.8 "></path></clipPath><g clip-path="url(#clip0x7f93e61796a0)"><image xlink:href="6DE92929033BBFADADC95540C1319A21.png" width="204.00" height="13.00" transform="matrix(1.00, 0.00, -0.00, -0.99, 1.2, 14.7)"></image></g></g><g><clipPath id="clip0x7f93e63e2360"><path d="M 7.2 49.5 L 7.2 49.5 C 7.2 49.7 7.4 50.0 7.7 50.0 L 198.6 50.0 C 198.9 50.0 199.1 49.7 199.1 49.5 L 199.1 49.5 C 199.1 49.2 198.9 49.0 198.6 49.0 L 7.7 49.0 C 7.4 49.0 7.2 49.2 7.2 49.5 Z M 7.2 49.5 "></path></clipPath><g clip-path="url(#clip0x7f93e63e2360)"><g><clipPath id="clip0x7f93e63e2cd0"><path d="M 0.2 0.8 L 206.1 0.8 L 206.1 50.9 L 0.2 50.9 Z M 0.2 0.8 "></path></clipPath><g clip-path="url(#clip0x7f93e63e2cd0)"><path d="M 0.2 0.8 L 206.1 0.8 L 206.1 50.9 L 0.2 50.9 Z M 0.2 0.8 " fill="url(#gradSh1.4)"></path></g></g></g></g><g><clipPath id="clip0x7f93e6536cd0"><path d="M 0.2 0.8 L 206.1 0.8 L 206.1 50.9 L 0.2 50.9 Z M 0.2 0.8 "></path></clipPath><g clip-path="url(#clip0x7f93e6536cd0)"><image xlink:href="../../D788B1CE-B5BB-405F-BA42-0362F6DC6E30/assets/6DE92929033BBFADADC95540C1319A21.png" width="204.00" height="13.00" transform="matrix(1.00, 0.00, -0.00, -0.99, 1.2, 14.7)"></image></g></g><g><clipPath id="clip0x7f93e65396e0"><path d="M 7.2 49.5 L 7.2 49.5 C 7.2 49.7 7.4 50.0 7.7 50.0 L 198.6 50.0 C 198.9 50.0 199.1 49.7 199.1 49.5 L 199.1 49.5 C 199.1 49.2 198.9 49.0 198.6 49.0 L 7.7 49.0 C 7.4 49.0 7.2 49.2 7.2 49.5 Z M 7.2 49.5 "></path></clipPath><g clip-path="url(#clip0x7f93e65396e0)"><g><clipPath id="clip0x7f93e6537cc0"><path d="M 0.2 0.8 L 206.1 0.8 L 206.1 50.9 L 0.2 50.9 Z M 0.2 0.8 "></path></clipPath><g clip-path="url(#clip0x7f93e6537cc0)"><path d="M 0.2 0.8 L 206.1 0.8 L 206.1 50.9 L 0.2 50.9 Z M 0.2 0.8 " fill="url(#gradSh1.5)"></path></g></g></g></g><g><clipPath id="clip0x7f93e6585010"><path d="M 3.9 7.2 L 201.9 7.2 L 201.9 398.2 L 3.9 398.2 Z M 3.9 7.2 "></path></clipPath><g clip-path="url(#clip0x7f93e6585010)"><image xlink:href="4217B187C1A079EBB531FDF41C90931E.png" width="198.00" height="391.00" transform="matrix(1.00, 0.00, -0.00, -1.00, 3.9, 398.2)"></image></g></g><g><clipPath id="clip0x7f93e6586c70"><path d="M 6.0 397.0 L 200.0 397.0 L 200.0 10.0 L 6.0 10.0 Z M 5.9 397.2 "></path></clipPath><g clip-path="url(#clip0x7f93e6586c70)"><g><clipPath id="clip0x7f93e6587150"><path d="M 6.0 204.0 L 6.0 397.0 L 102.9 397.0 L 200.0 397.0 L 200.0 203.7 L 200.0 10.0 L 102.9 10.0 L 6.0 10.0 L 6.0 204.0 M 191.0 211.5 C 191.2 324.8 191.0 366.0 189.9 367.3 C 188.8 368.7 173.9 369.3 101.8 369.0 L 15.0 368.0 L 15.0 214.1 C 14.8 129.3 14.8 59.2 15.1 58.4 C 15.5 57.2 33.8 56.8 103.2 57.0 L 191.0 57.0 L 191.0 212.0 "></path></clipPath><g clip-path="url(#clip0x7f93e6587150)"><g><clipPath id="clip0x7f93e6587660"><path d="M 3.9 7.2 L 201.9 7.2 L 201.9 398.2 L 3.9 398.2 Z M 3.9 7.2 "></path></clipPath><g clip-path="url(#clip0x7f93e6587660)"><image xlink:href="9E9BF516A8FBFEFC1BC2E76CE5B9DF43.png" width="194.00" height="387.00" transform="matrix(1.00, 0.00, -0.00, -1.00, 6.0, 397.0)"></image></g></g></g></g></g></g></g></svg>