<?xml version="1.0" encoding="UTF-8" standalone="no"?><svg xmlns="http://www.w3.org/2000/svg" xmlns:xlink="http://www.w3.org/1999/xlink" clip-rule="evenodd" stroke-miterlimit="10" viewBox="0 0 715 84"><desc>SVG generated by Keynote</desc><defs></defs><g transform="matrix(1.00, 0.00, -0.00, -1.00, 0.0, 84.0)"><text xml:space="preserve" font-family="Roboto-Regular,Roboto" font-size="84.0" fill="#FEFFFE" transform="matrix(1.00, 0.00, -0.00, -1.00, -5.2, 19.3)">M</text><text xml:space="preserve" font-family="Roboto-Regular,Roboto" font-size="84.0" fill="#FEFFFE" transform="matrix(1.00, 0.00, -0.00, -1.00, 68.2, 19.3)">a</text><text xml:space="preserve" font-family="Roboto-Regular,Roboto" font-size="84.0" fill="#FEFFFE" transform="matrix(1.00, 0.00, -0.00, -1.00, 113.9, 19.3)">t</text><text xml:space="preserve" font-family="Roboto-Regular,Roboto" font-size="84.0" fill="#FEFFFE" transform="matrix(1.00, 0.00, -0.00, -1.00, 141.3, 19.3)">e</text><text xml:space="preserve" font-family="Roboto-Regular,Roboto" font-size="84.0" fill="#FEFFFE" transform="matrix(1.00, 0.00, -0.00, -1.00, 185.8, 19.3)">r</text><text xml:space="preserve" font-family="Roboto-Regular,Roboto" font-size="84.0" fill="#FEFFFE" transform="matrix(1.00, 0.00, -0.00, -1.00, 214.2, 19.3)">i</text><text xml:space="preserve" font-family="Roboto-Regular,Roboto" font-size="84.0" fill="#FEFFFE" transform="matrix(1.00, 0.00, -0.00, -1.00, 234.6, 19.3)">a</text><text xml:space="preserve" font-family="Roboto-Regular,Roboto" font-size="84.0" fill="#FEFFFE" transform="matrix(1.00, 0.00, -0.00, -1.00, 280.3, 19.3)">l</text><text xml:space="preserve" font-family="Roboto-Regular,Roboto" font-size="84.0" fill="#FEFFFE" transform="matrix(1.00, 0.00, -0.00, -1.00, 300.6, 19.3)"> </text><text xml:space="preserve" font-family="Roboto-Regular,Roboto" font-size="84.0" fill="#FEFFFE" transform="matrix(1.00, 0.00, -0.00, -1.00, 321.4, 19.3)">D</text><text xml:space="preserve" font-family="Roboto-Regular,Roboto" font-size="84.0" fill="#FEFFFE" transform="matrix(1.00, 0.00, -0.00, -1.00, 376.5, 19.3)">e</text><text xml:space="preserve" font-family="Roboto-Regular,Roboto" font-size="84.0" fill="#FEFFFE" transform="matrix(1.00, 0.00, -0.00, -1.00, 420.9, 19.3)">s</text><text xml:space="preserve" font-family="Roboto-Regular,Roboto" font-size="84.0" fill="#FEFFFE" transform="matrix(1.00, 0.00, -0.00, -1.00, 464.2, 19.3)">i</text><text xml:space="preserve" font-family="Roboto-Regular,Roboto" font-size="84.0" fill="#FEFFFE" transform="matrix(1.00, 0.00, -0.00, -1.00, 484.6, 19.3)">g</text><text xml:space="preserve" font-family="Roboto-Regular,Roboto" font-size="84.0" fill="#FEFFFE" transform="matrix(1.00, 0.00, -0.00, -1.00, 531.7, 19.3)">n</text><text xml:space="preserve" font-family="Roboto-Regular,Roboto" font-size="84.0" fill="#FEFFFE" transform="matrix(1.00, 0.00, -0.00, -1.00, 578.0, 19.3)"> </text><text xml:space="preserve" font-family="Roboto-Regular,Roboto" font-size="84.0" fill="#FEFFFE" transform="matrix(1.00, 0.00, -0.00, -1.00, 598.8, 19.3)">i</text><text xml:space="preserve" font-family="Roboto-Regular,Roboto" font-size="84.0" fill="#FEFFFE" transform="matrix(1.00, 0.00, -0.00, -1.00, 619.2, 19.3)">s</text><text xml:space="preserve" font-family="Roboto-Regular,Roboto" font-size="84.0" fill="#FEFFFE" transform="matrix(1.00, 0.00, -0.00, -1.00, 662.4, 19.3)">…</text></g></svg>