<?xml version="1.0" encoding="UTF-8" standalone="no"?><svg xmlns="http://www.w3.org/2000/svg" xmlns:xlink="http://www.w3.org/1999/xlink" clip-rule="evenodd" stroke-miterlimit="10" viewBox="0 0 605 59"><desc>SVG generated by Keynote</desc><defs></defs><g transform="matrix(1.00, 0.00, -0.00, -1.00, 0.0, 59.0)"><text xml:space="preserve" font-family="RobotoCondensed-Regular,Roboto Condensed" font-size="50.0" fill="#FEFFFE" transform="matrix(1.00, 0.00, -0.00, -1.00, 0.8, 12.5)">w</text><text xml:space="preserve" font-family="RobotoCondensed-Regular,Roboto Condensed" font-size="50.0" fill="#FEFFFE" transform="matrix(1.00, 0.00, -0.00, -1.00, 33.3, 12.5)">w</text><text xml:space="preserve" font-family="RobotoCondensed-Regular,Roboto Condensed" font-size="50.0" fill="#FEFFFE" transform="matrix(1.00, 0.00, -0.00, -1.00, 65.8, 12.5)">w</text><text xml:space="preserve" font-family="RobotoCondensed-Regular,Roboto Condensed" font-size="50.0" fill="#FEFFFE" transform="matrix(1.00, 0.00, -0.00, -1.00, 95.2, 12.5)">.</text><text xml:space="preserve" font-family="RobotoCondensed-Regular,Roboto Condensed" font-size="50.0" fill="#FEFFFE" transform="matrix(1.00, 0.00, -0.00, -1.00, 108.4, 12.5)">g</text><text xml:space="preserve" font-family="RobotoCondensed-Regular,Roboto Condensed" font-size="50.0" fill="#FEFFFE" transform="matrix(1.00, 0.00, -0.00, -1.00, 133.0, 12.5)">o</text><text xml:space="preserve" font-family="RobotoCondensed-Regular,Roboto Condensed" font-size="50.0" fill="#FEFFFE" transform="matrix(1.00, 0.00, -0.00, -1.00, 158.1, 12.5)">o</text><text xml:space="preserve" font-family="RobotoCondensed-Regular,Roboto Condensed" font-size="50.0" fill="#FEFFFE" transform="matrix(1.00, 0.00, -0.00, -1.00, 183.2, 12.5)">g</text><text xml:space="preserve" font-family="RobotoCondensed-Regular,Roboto Condensed" font-size="50.0" fill="#FEFFFE" transform="matrix(1.00, 0.00, -0.00, -1.00, 207.8, 12.5)">l</text><text xml:space="preserve" font-family="RobotoCondensed-Regular,Roboto Condensed" font-size="50.0" fill="#FEFFFE" transform="matrix(1.00, 0.00, -0.00, -1.00, 219.3, 12.5)">e</text><text xml:space="preserve" font-family="RobotoCondensed-Regular,Roboto Condensed" font-size="50.0" fill="#FEFFFE" transform="matrix(1.00, 0.00, -0.00, -1.00, 242.7, 12.5)">.</text><text xml:space="preserve" font-family="RobotoCondensed-Regular,Roboto Condensed" font-size="50.0" fill="#FEFFFE" transform="matrix(1.00, 0.00, -0.00, -1.00, 255.9, 12.5)">c</text><text xml:space="preserve" font-family="RobotoCondensed-Regular,Roboto Condensed" font-size="50.0" fill="#FEFFFE" transform="matrix(1.00, 0.00, -0.00, -1.00, 279.0, 12.5)">o</text><text xml:space="preserve" font-family="RobotoCondensed-Regular,Roboto Condensed" font-size="50.0" fill="#FEFFFE" transform="matrix(1.00, 0.00, -0.00, -1.00, 304.1, 12.5)">m</text><text xml:space="preserve" font-family="RobotoCondensed-Regular,Roboto Condensed" font-size="50.0" fill="#FEFFFE" transform="matrix(1.00, 0.00, -0.00, -1.00, 341.7, 12.5)">/</text><text xml:space="preserve" font-family="RobotoCondensed-Regular,Roboto Condensed" font-size="50.0" fill="#FEFFFE" transform="matrix(1.00, 0.00, -0.00, -1.00, 360.2, 12.5)">d</text><text xml:space="preserve" font-family="RobotoCondensed-Regular,Roboto Condensed" font-size="50.0" fill="#FEFFFE" transform="matrix(1.00, 0.00, -0.00, -1.00, 385.0, 12.5)">e</text><text xml:space="preserve" font-family="RobotoCondensed-Regular,Roboto Condensed" font-size="50.0" fill="#FEFFFE" transform="matrix(1.00, 0.00, -0.00, -1.00, 408.5, 12.5)">s</text><text xml:space="preserve" font-family="RobotoCondensed-Regular,Roboto Condensed" font-size="50.0" fill="#FEFFFE" transform="matrix(1.00, 0.00, -0.00, -1.00, 431.2, 12.5)">i</text><text xml:space="preserve" font-family="RobotoCondensed-Regular,Roboto Condensed" font-size="50.0" fill="#FEFFFE" transform="matrix(1.00, 0.00, -0.00, -1.00, 442.7, 12.5)">g</text><text xml:space="preserve" font-family="RobotoCondensed-Regular,Roboto Condensed" font-size="50.0" fill="#FEFFFE" transform="matrix(1.00, 0.00, -0.00, -1.00, 467.3, 12.5)">n</text><text xml:space="preserve" font-family="RobotoCondensed-Regular,Roboto Condensed" font-size="50.0" fill="#FEFFFE" transform="matrix(1.00, 0.00, -0.00, -1.00, 491.5, 12.5)">/</text><text xml:space="preserve" font-family="RobotoCondensed-Regular,Roboto Condensed" font-size="50.0" fill="#FEFFFE" transform="matrix(1.00, 0.00, -0.00, -1.00, 510.0, 12.5)">s</text><text xml:space="preserve" font-family="RobotoCondensed-Regular,Roboto Condensed" font-size="50.0" fill="#FEFFFE" transform="matrix(1.00, 0.00, -0.00, -1.00, 532.7, 12.5)">p</text><text xml:space="preserve" font-family="RobotoCondensed-Regular,Roboto Condensed" font-size="50.0" fill="#FEFFFE" transform="matrix(1.00, 0.00, -0.00, -1.00, 557.4, 12.5)">e</text><text xml:space="preserve" font-family="RobotoCondensed-Regular,Roboto Condensed" font-size="50.0" fill="#FEFFFE" transform="matrix(1.00, 0.00, -0.00, -1.00, 580.8, 12.5)">c</text><g><clipPath id="clip0x7f93e711f610"><path d="M -0.2 6.6 L 604.0 6.6 L 604.0 11.0 L -0.2 11.0 Z M -0.2 6.6 "></path></clipPath><g clip-path="url(#clip0x7f93e711f610)"><path d="M 4.5 53.5 L 607.7 53.5 " fill="none" stroke="#FEFFFE" stroke-width="2.44" transform="matrix(1.00, 0.00, 0.00, -1.00, -3.7, 62.3)"></path></g></g></g></svg>