<?xml version="1.0" encoding="UTF-8" standalone="no"?><svg xmlns="http://www.w3.org/2000/svg" xmlns:xlink="http://www.w3.org/1999/xlink" clip-rule="evenodd" stroke-miterlimit="10" viewBox="0 0 386 65"><desc>SVG generated by Keynote</desc><defs></defs><g transform="matrix(1.00, 0.00, -0.00, -1.00, 0.0, 65.0)"><text xml:space="preserve" font-family="Helvetica-Light,Helvetica" font-size="84.0" fill="#FEFFFE" transform="matrix(1.00, 0.00, -0.00, -1.00, 0.8, 2.7)">T</text><text xml:space="preserve" font-family="Helvetica-Light,Helvetica" font-size="84.0" fill="#FEFFFE" transform="matrix(1.00, 0.00, -0.00, -1.00, 47.5, 2.7)">h</text><text xml:space="preserve" font-family="Helvetica-Light,Helvetica" font-size="84.0" fill="#FEFFFE" transform="matrix(1.00, 0.00, -0.00, -1.00, 94.2, 2.7)">a</text><text xml:space="preserve" font-family="Helvetica-Light,Helvetica" font-size="84.0" fill="#FEFFFE" transform="matrix(1.00, 0.00, -0.00, -1.00, 140.9, 2.7)">n</text><text xml:space="preserve" font-family="Helvetica-Light,Helvetica" font-size="84.0" fill="#FEFFFE" transform="matrix(1.00, 0.00, -0.00, -1.00, 187.6, 2.7)">k</text><text xml:space="preserve" font-family="Helvetica-Light,Helvetica" font-size="84.0" fill="#FEFFFE" transform="matrix(1.00, 0.00, -0.00, -1.00, 229.6, 2.7)"> </text><text xml:space="preserve" font-family="Helvetica-Light,Helvetica" font-size="84.0" fill="#FEFFFE" transform="matrix(1.00, 0.00, -0.00, -1.00, 253.0, 2.7)">Y</text><text xml:space="preserve" font-family="Helvetica-Light,Helvetica" font-size="84.0" fill="#FEFFFE" transform="matrix(1.00, 0.00, -0.00, -1.00, 296.6, 2.7)">o</text><text xml:space="preserve" font-family="Helvetica-Light,Helvetica" font-size="84.0" fill="#FEFFFE" transform="matrix(1.00, 0.00, -0.00, -1.00, 343.3, 2.7)">u</text></g></svg>