<?xml version="1.0" encoding="UTF-8" standalone="no"?><svg xmlns="http://www.w3.org/2000/svg" xmlns:xlink="http://www.w3.org/1999/xlink" clip-rule="evenodd" stroke-miterlimit="10" viewBox="0 0 441 72"><desc>SVG generated by Keynote</desc><defs></defs><g transform="matrix(1.00, 0.00, -0.00, -1.00, 0.0, 72.0)"><text xml:space="preserve" font-family="Roboto-Light,Roboto" font-size="90.0" fill="#FEFFFE" transform="matrix(1.00, 0.00, -0.00, -1.00, -6.2, 2.4)">M</text><text xml:space="preserve" font-family="Roboto-Light,Roboto" font-size="90.0" fill="#FEFFFE" transform="matrix(1.00, 0.00, -0.00, -1.00, 71.7, 2.4)">i</text><text xml:space="preserve" font-family="Roboto-Light,Roboto" font-size="90.0" fill="#FEFFFE" transform="matrix(1.00, 0.00, -0.00, -1.00, 91.9, 2.4)">t</text><text xml:space="preserve" font-family="Roboto-Light,Roboto" font-size="90.0" fill="#FEFFFE" transform="matrix(1.00, 0.00, -0.00, -1.00, 120.9, 2.4)">c</text><text xml:space="preserve" font-family="Roboto-Light,Roboto" font-size="90.0" fill="#FEFFFE" transform="matrix(1.00, 0.00, -0.00, -1.00, 167.2, 2.4)">h</text><text xml:space="preserve" font-family="Roboto-Light,Roboto" font-size="90.0" fill="#FEFFFE" transform="matrix(1.00, 0.00, -0.00, -1.00, 216.7, 2.4)"> </text><text xml:space="preserve" font-family="Roboto-Light,Roboto" font-size="90.0" fill="#FEFFFE" transform="matrix(1.00, 0.00, -0.00, -1.00, 238.6, 2.4)">W</text><text xml:space="preserve" font-family="Roboto-Light,Roboto" font-size="90.0" fill="#FEFFFE" transform="matrix(1.00, 0.00, -0.00, -1.00, 317.8, 2.4)">a</text><text xml:space="preserve" font-family="Roboto-Light,Roboto" font-size="90.0" fill="#FEFFFE" transform="matrix(1.00, 0.00, -0.00, -1.00, 366.0, 2.4)">r</text><text xml:space="preserve" font-family="Roboto-Light,Roboto" font-size="90.0" fill="#FEFFFE" transform="matrix(1.00, 0.00, -0.00, -1.00, 395.4, 2.4)">e</text></g></svg>