<?xml version="1.0" encoding="UTF-8" standalone="no"?><svg xmlns="http://www.w3.org/2000/svg" xmlns:xlink="http://www.w3.org/1999/xlink" clip-rule="evenodd" stroke-miterlimit="10" viewBox="0 0 857 52"><desc>SVG generated by Keynote</desc><defs></defs><g transform="matrix(1.00, 0.00, -0.00, -1.00, 0.0, 52.0)"><text xml:space="preserve" font-family="Roboto-LightItalic,Roboto" font-style="italic" font-size="50.0" fill="#FEFFFE" transform="matrix(1.00, 0.00, -0.00, -1.00, -2.8, 11.9)">“</text><text xml:space="preserve" font-family="Roboto-LightItalic,Roboto" font-style="italic" font-size="50.0" fill="#FEFFFE" transform="matrix(1.00, 0.00, -0.00, -1.00, 10.7, 11.9)">a</text><text xml:space="preserve" font-family="Roboto-LightItalic,Roboto" font-style="italic" font-size="50.0" fill="#FEFFFE" transform="matrix(1.00, 0.00, -0.00, -1.00, 37.0, 11.9)"> </text><text xml:space="preserve" font-family="Roboto-LightItalic,Roboto" font-style="italic" font-size="50.0" fill="#FEFFFE" transform="matrix(1.00, 0.00, -0.00, -1.00, 49.0, 11.9)">n</text><text xml:space="preserve" font-family="Roboto-LightItalic,Roboto" font-style="italic" font-size="50.0" fill="#FEFFFE" transform="matrix(1.00, 0.00, -0.00, -1.00, 75.9, 11.9)">e</text><text xml:space="preserve" font-family="Roboto-LightItalic,Roboto" font-style="italic" font-size="50.0" fill="#FEFFFE" transform="matrix(1.00, 0.00, -0.00, -1.00, 101.1, 11.9)">w</text><text xml:space="preserve" font-family="Roboto-LightItalic,Roboto" font-style="italic" font-size="50.0" fill="#FEFFFE" transform="matrix(1.00, 0.00, -0.00, -1.00, 138.0, 11.9)"> </text><text xml:space="preserve" font-family="Roboto-LightItalic,Roboto" font-style="italic" font-size="50.0" fill="#FEFFFE" transform="matrix(1.00, 0.00, -0.00, -1.00, 150.0, 11.9)">p</text><text xml:space="preserve" font-family="Roboto-LightItalic,Roboto" font-style="italic" font-size="50.0" fill="#FEFFFE" transform="matrix(1.00, 0.00, -0.00, -1.00, 177.1, 11.9)">e</text><text xml:space="preserve" font-family="Roboto-LightItalic,Roboto" font-style="italic" font-size="50.0" fill="#FEFFFE" transform="matrix(1.00, 0.00, -0.00, -1.00, 202.4, 11.9)">r</text><text xml:space="preserve" font-family="Roboto-LightItalic,Roboto" font-style="italic" font-size="50.0" fill="#FEFFFE" transform="matrix(1.00, 0.00, -0.00, -1.00, 219.0, 11.9)">s</text><text xml:space="preserve" font-family="Roboto-LightItalic,Roboto" font-style="italic" font-size="50.0" fill="#FEFFFE" transform="matrix(1.00, 0.00, -0.00, -1.00, 243.8, 11.9)">p</text><text xml:space="preserve" font-family="Roboto-LightItalic,Roboto" font-style="italic" font-size="50.0" fill="#FEFFFE" transform="matrix(1.00, 0.00, -0.00, -1.00, 271.0, 11.9)">e</text><text xml:space="preserve" font-family="Roboto-LightItalic,Roboto" font-style="italic" font-size="50.0" fill="#FEFFFE" transform="matrix(1.00, 0.00, -0.00, -1.00, 296.2, 11.9)">c</text><text xml:space="preserve" font-family="Roboto-LightItalic,Roboto" font-style="italic" font-size="50.0" fill="#FEFFFE" transform="matrix(1.00, 0.00, -0.00, -1.00, 321.5, 11.9)">t</text><text xml:space="preserve" font-family="Roboto-LightItalic,Roboto" font-style="italic" font-size="50.0" fill="#FEFFFE" transform="matrix(1.00, 0.00, -0.00, -1.00, 337.3, 11.9)">i</text><text xml:space="preserve" font-family="Roboto-LightItalic,Roboto" font-style="italic" font-size="50.0" fill="#FEFFFE" transform="matrix(1.00, 0.00, -0.00, -1.00, 348.4, 11.9)">v</text><text xml:space="preserve" font-family="Roboto-LightItalic,Roboto" font-style="italic" font-size="50.0" fill="#FEFFFE" transform="matrix(1.00, 0.00, -0.00, -1.00, 371.7, 11.9)">e</text><text xml:space="preserve" font-family="Roboto-LightItalic,Roboto" font-style="italic" font-size="50.0" fill="#FEFFFE" transform="matrix(1.00, 0.00, -0.00, -1.00, 396.9, 11.9)"> </text><text xml:space="preserve" font-family="Roboto-LightItalic,Roboto" font-style="italic" font-size="50.0" fill="#FEFFFE" transform="matrix(1.00, 0.00, -0.00, -1.00, 409.0, 11.9)">o</text><text xml:space="preserve" font-family="Roboto-LightItalic,Roboto" font-style="italic" font-size="50.0" fill="#FEFFFE" transform="matrix(1.00, 0.00, -0.00, -1.00, 436.4, 11.9)">n</text><text xml:space="preserve" font-family="Roboto-LightItalic,Roboto" font-style="italic" font-size="50.0" fill="#FEFFFE" transform="matrix(1.00, 0.00, -0.00, -1.00, 463.3, 11.9)"> </text><text xml:space="preserve" font-family="Roboto-LightItalic,Roboto" font-style="italic" font-size="50.0" fill="#FEFFFE" transform="matrix(1.00, 0.00, -0.00, -1.00, 475.3, 11.9)">t</text><text xml:space="preserve" font-family="Roboto-LightItalic,Roboto" font-style="italic" font-size="50.0" fill="#FEFFFE" transform="matrix(1.00, 0.00, -0.00, -1.00, 491.1, 11.9)">h</text><text xml:space="preserve" font-family="Roboto-LightItalic,Roboto" font-style="italic" font-size="50.0" fill="#FEFFFE" transform="matrix(1.00, 0.00, -0.00, -1.00, 518.0, 11.9)">e</text><text xml:space="preserve" font-family="Roboto-LightItalic,Roboto" font-style="italic" font-size="50.0" fill="#FEFFFE" transform="matrix(1.00, 0.00, -0.00, -1.00, 543.3, 11.9)"> </text><text xml:space="preserve" font-family="Roboto-LightItalic,Roboto" font-style="italic" font-size="50.0" fill="#FEFFFE" transform="matrix(1.00, 0.00, -0.00, -1.00, 555.3, 11.9)">h</text><text xml:space="preserve" font-family="Roboto-LightItalic,Roboto" font-style="italic" font-size="50.0" fill="#FEFFFE" transform="matrix(1.00, 0.00, -0.00, -1.00, 582.2, 11.9)">u</text><text xml:space="preserve" font-family="Roboto-LightItalic,Roboto" font-style="italic" font-size="50.0" fill="#FEFFFE" transform="matrix(1.00, 0.00, -0.00, -1.00, 609.0, 11.9)">m</text><text xml:space="preserve" font-family="Roboto-LightItalic,Roboto" font-style="italic" font-size="50.0" fill="#FEFFFE" transform="matrix(1.00, 0.00, -0.00, -1.00, 652.2, 11.9)">a</text><text xml:space="preserve" font-family="Roboto-LightItalic,Roboto" font-style="italic" font-size="50.0" fill="#FEFFFE" transform="matrix(1.00, 0.00, -0.00, -1.00, 678.5, 11.9)">n</text><text xml:space="preserve" font-family="Roboto-LightItalic,Roboto" font-style="italic" font-size="50.0" fill="#FEFFFE" transform="matrix(1.00, 0.00, -0.00, -1.00, 705.3, 11.9)">-</text><text xml:space="preserve" font-family="Roboto-LightItalic,Roboto" font-style="italic" font-size="50.0" fill="#FEFFFE" transform="matrix(1.00, 0.00, -0.00, -1.00, 719.5, 11.9)">d</text><text xml:space="preserve" font-family="Roboto-LightItalic,Roboto" font-style="italic" font-size="50.0" fill="#FEFFFE" transform="matrix(1.00, 0.00, -0.00, -1.00, 746.6, 11.9)">e</text><text xml:space="preserve" font-family="Roboto-LightItalic,Roboto" font-style="italic" font-size="50.0" fill="#FEFFFE" transform="matrix(1.00, 0.00, -0.00, -1.00, 771.6, 11.9)">v</text><text xml:space="preserve" font-family="Roboto-LightItalic,Roboto" font-style="italic" font-size="50.0" fill="#FEFFFE" transform="matrix(1.00, 0.00, -0.00, -1.00, 795.2, 11.9)">i</text><text xml:space="preserve" font-family="Roboto-LightItalic,Roboto" font-style="italic" font-size="50.0" fill="#FEFFFE" transform="matrix(1.00, 0.00, -0.00, -1.00, 806.3, 11.9)">c</text><text xml:space="preserve" font-family="Roboto-LightItalic,Roboto" font-style="italic" font-size="50.0" fill="#FEFFFE" transform="matrix(1.00, 0.00, -0.00, -1.00, 831.6, 11.9)">e</text></g></svg>