<?xml version="1.0" encoding="UTF-8" standalone="no"?><svg xmlns="http://www.w3.org/2000/svg" xmlns:xlink="http://www.w3.org/1999/xlink" clip-rule="evenodd" stroke-miterlimit="10" viewBox="0 0 275 82"><desc>SVG generated by Keynote</desc><defs></defs><g transform="matrix(1.00, 0.00, -0.00, -1.00, 0.0, 82.0)"><g><clipPath id="clip0x7f93e5e40b50"><path d="M -12.2 -11.8 L 286.8 -11.8 L 286.8 94.3 L -12.2 94.3 Z M -12.2 -11.8 "></path></clipPath><g clip-path="url(#clip0x7f93e5e40b50)"><text xml:space="preserve" font-family="Roboto-Regular,Roboto" font-size="60.0" fill="#FEFFFE" transform="matrix(1.00, 0.00, -0.00, -1.00, 5.9, 20.4)">L</text><text xml:space="preserve" font-family="Roboto-Regular,Roboto" font-size="60.0" fill="#FEFFFE" transform="matrix(1.00, 0.00, -0.00, -1.00, 38.2, 20.4)">a</text><text xml:space="preserve" font-family="Roboto-Regular,Roboto" font-size="60.0" fill="#FEFFFE" transform="matrix(1.00, 0.00, -0.00, -1.00, 70.8, 20.4)">n</text><text xml:space="preserve" font-family="Roboto-Regular,Roboto" font-size="60.0" fill="#FEFFFE" transform="matrix(1.00, 0.00, -0.00, -1.00, 103.9, 20.4)">g</text><text xml:space="preserve" font-family="Roboto-Regular,Roboto" font-size="60.0" fill="#FEFFFE" transform="matrix(1.00, 0.00, -0.00, -1.00, 137.6, 20.4)">u</text><text xml:space="preserve" font-family="Roboto-Regular,Roboto" font-size="60.0" fill="#FEFFFE" transform="matrix(1.00, 0.00, -0.00, -1.00, 170.7, 20.4)">a</text><text xml:space="preserve" font-family="Roboto-Regular,Roboto" font-size="60.0" fill="#FEFFFE" transform="matrix(1.00, 0.00, -0.00, -1.00, 203.3, 20.4)">g</text><text xml:space="preserve" font-family="Roboto-Regular,Roboto" font-size="60.0" fill="#FEFFFE" transform="matrix(1.00, 0.00, -0.00, -1.00, 237.0, 20.4)">e</text></g></g></g></svg>